<?xml version="1.0" encoding="utf-8" standalone="no"?>
<!DOCTYPE svg PUBLIC "-//W3C//DTD SVG 1.1//EN"
  "http://www.w3.org/Graphics/SVG/1.1/DTD/svg11.dtd">
<!-- Created with matplotlib (https://matplotlib.org/) -->
<svg height="345.6pt" version="1.1" viewBox="0 0 460.8 345.6" width="460.8pt" xmlns="http://www.w3.org/2000/svg" xmlns:xlink="http://www.w3.org/1999/xlink">
 <metadata>
  <rdf:RDF xmlns:cc="http://creativecommons.org/ns#" xmlns:dc="http://purl.org/dc/elements/1.1/" xmlns:rdf="http://www.w3.org/1999/02/22-rdf-syntax-ns#">
   <cc:Work>
    <dc:type rdf:resource="http://purl.org/dc/dcmitype/StillImage"/>
    <dc:date>2020-11-04T10:45:36.403337</dc:date>
    <dc:format>image/svg+xml</dc:format>
    <dc:creator>
     <cc:Agent>
      <dc:title>Matplotlib v3.3.1, https://matplotlib.org/</dc:title>
     </cc:Agent>
    </dc:creator>
   </cc:Work>
  </rdf:RDF>
 </metadata>
 <defs>
  <style type="text/css">*{stroke-linecap:butt;stroke-linejoin:round;}</style>
 </defs>
 <g id="figure_1">
  <g id="patch_1">
   <path d="M 0 345.6 
L 460.8 345.6 
L 460.8 0 
L 0 0 
z
" style="fill:#ffffff;"/>
  </g>
  <g id="axes_1">
   <g id="patch_2">
    <path d="M 57.6 307.584 
L 414.72 307.584 
L 414.72 41.472 
L 57.6 41.472 
z
" style="fill:#ffffff;"/>
   </g>
   <g id="matplotlib.axis_1">
    <g id="xtick_1">
     <g id="line2d_1">
      <defs>
       <path d="M 0 0 
L 0 3.5 
" id="m1778f05a33" style="stroke:#000000;stroke-width:0.8;"/>
      </defs>
      <g>
       <use style="stroke:#000000;stroke-width:0.8;" x="72.225527" xlink:href="#m1778f05a33" y="307.584"/>
      </g>
     </g>
     <g id="text_1">
      <!-- 0 -->
      <g transform="translate(69.044277 322.182437)scale(0.1 -0.1)">
       <defs>
        <path d="M 31.78125 66.40625 
Q 24.171875 66.40625 20.328125 58.90625 
Q 16.5 51.421875 16.5 36.375 
Q 16.5 21.390625 20.328125 13.890625 
Q 24.171875 6.390625 31.78125 6.390625 
Q 39.453125 6.390625 43.28125 13.890625 
Q 47.125 21.390625 47.125 36.375 
Q 47.125 51.421875 43.28125 58.90625 
Q 39.453125 66.40625 31.78125 66.40625 
z
M 31.78125 74.21875 
Q 44.046875 74.21875 50.515625 64.515625 
Q 56.984375 54.828125 56.984375 36.375 
Q 56.984375 17.96875 50.515625 8.265625 
Q 44.046875 -1.421875 31.78125 -1.421875 
Q 19.53125 -1.421875 13.0625 8.265625 
Q 6.59375 17.96875 6.59375 36.375 
Q 6.59375 54.828125 13.0625 64.515625 
Q 19.53125 74.21875 31.78125 74.21875 
z
" id="DejaVuSans-48"/>
       </defs>
       <use xlink:href="#DejaVuSans-48"/>
      </g>
     </g>
    </g>
    <g id="xtick_2">
     <g id="line2d_2">
      <g>
       <use style="stroke:#000000;stroke-width:0.8;" x="112.405545" xlink:href="#m1778f05a33" y="307.584"/>
      </g>
     </g>
     <g id="text_2">
      <!-- 25 -->
      <g transform="translate(106.043045 322.182437)scale(0.1 -0.1)">
       <defs>
        <path d="M 19.1875 8.296875 
L 53.609375 8.296875 
L 53.609375 0 
L 7.328125 0 
L 7.328125 8.296875 
Q 12.9375 14.109375 22.625 23.890625 
Q 32.328125 33.6875 34.8125 36.53125 
Q 39.546875 41.84375 41.421875 45.53125 
Q 43.3125 49.21875 43.3125 52.78125 
Q 43.3125 58.59375 39.234375 62.25 
Q 35.15625 65.921875 28.609375 65.921875 
Q 23.96875 65.921875 18.8125 64.3125 
Q 13.671875 62.703125 7.8125 59.421875 
L 7.8125 69.390625 
Q 13.765625 71.78125 18.9375 73 
Q 24.125 74.21875 28.421875 74.21875 
Q 39.75 74.21875 46.484375 68.546875 
Q 53.21875 62.890625 53.21875 53.421875 
Q 53.21875 48.921875 51.53125 44.890625 
Q 49.859375 40.875 45.40625 35.40625 
Q 44.1875 33.984375 37.640625 27.21875 
Q 31.109375 20.453125 19.1875 8.296875 
z
" id="DejaVuSans-50"/>
        <path d="M 10.796875 72.90625 
L 49.515625 72.90625 
L 49.515625 64.59375 
L 19.828125 64.59375 
L 19.828125 46.734375 
Q 21.96875 47.46875 24.109375 47.828125 
Q 26.265625 48.1875 28.421875 48.1875 
Q 40.625 48.1875 47.75 41.5 
Q 54.890625 34.8125 54.890625 23.390625 
Q 54.890625 11.625 47.5625 5.09375 
Q 40.234375 -1.421875 26.90625 -1.421875 
Q 22.3125 -1.421875 17.546875 -0.640625 
Q 12.796875 0.140625 7.71875 1.703125 
L 7.71875 11.625 
Q 12.109375 9.234375 16.796875 8.0625 
Q 21.484375 6.890625 26.703125 6.890625 
Q 35.15625 6.890625 40.078125 11.328125 
Q 45.015625 15.765625 45.015625 23.390625 
Q 45.015625 31 40.078125 35.4375 
Q 35.15625 39.890625 26.703125 39.890625 
Q 22.75 39.890625 18.8125 39.015625 
Q 14.890625 38.140625 10.796875 36.28125 
z
" id="DejaVuSans-53"/>
       </defs>
       <use xlink:href="#DejaVuSans-50"/>
       <use x="63.623047" xlink:href="#DejaVuSans-53"/>
      </g>
     </g>
    </g>
    <g id="xtick_3">
     <g id="line2d_3">
      <g>
       <use style="stroke:#000000;stroke-width:0.8;" x="152.585563" xlink:href="#m1778f05a33" y="307.584"/>
      </g>
     </g>
     <g id="text_3">
      <!-- 50 -->
      <g transform="translate(146.223063 322.182437)scale(0.1 -0.1)">
       <use xlink:href="#DejaVuSans-53"/>
       <use x="63.623047" xlink:href="#DejaVuSans-48"/>
      </g>
     </g>
    </g>
    <g id="xtick_4">
     <g id="line2d_4">
      <g>
       <use style="stroke:#000000;stroke-width:0.8;" x="192.765581" xlink:href="#m1778f05a33" y="307.584"/>
      </g>
     </g>
     <g id="text_4">
      <!-- 75 -->
      <g transform="translate(186.403081 322.182437)scale(0.1 -0.1)">
       <defs>
        <path d="M 8.203125 72.90625 
L 55.078125 72.90625 
L 55.078125 68.703125 
L 28.609375 0 
L 18.3125 0 
L 43.21875 64.59375 
L 8.203125 64.59375 
z
" id="DejaVuSans-55"/>
       </defs>
       <use xlink:href="#DejaVuSans-55"/>
       <use x="63.623047" xlink:href="#DejaVuSans-53"/>
      </g>
     </g>
    </g>
    <g id="xtick_5">
     <g id="line2d_5">
      <g>
       <use style="stroke:#000000;stroke-width:0.8;" x="232.945599" xlink:href="#m1778f05a33" y="307.584"/>
      </g>
     </g>
     <g id="text_5">
      <!-- 100 -->
      <g transform="translate(223.401849 322.182437)scale(0.1 -0.1)">
       <defs>
        <path d="M 12.40625 8.296875 
L 28.515625 8.296875 
L 28.515625 63.921875 
L 10.984375 60.40625 
L 10.984375 69.390625 
L 28.421875 72.90625 
L 38.28125 72.90625 
L 38.28125 8.296875 
L 54.390625 8.296875 
L 54.390625 0 
L 12.40625 0 
z
" id="DejaVuSans-49"/>
       </defs>
       <use xlink:href="#DejaVuSans-49"/>
       <use x="63.623047" xlink:href="#DejaVuSans-48"/>
       <use x="127.246094" xlink:href="#DejaVuSans-48"/>
      </g>
     </g>
    </g>
    <g id="xtick_6">
     <g id="line2d_6">
      <g>
       <use style="stroke:#000000;stroke-width:0.8;" x="273.125617" xlink:href="#m1778f05a33" y="307.584"/>
      </g>
     </g>
     <g id="text_6">
      <!-- 125 -->
      <g transform="translate(263.581867 322.182437)scale(0.1 -0.1)">
       <use xlink:href="#DejaVuSans-49"/>
       <use x="63.623047" xlink:href="#DejaVuSans-50"/>
       <use x="127.246094" xlink:href="#DejaVuSans-53"/>
      </g>
     </g>
    </g>
    <g id="xtick_7">
     <g id="line2d_7">
      <g>
       <use style="stroke:#000000;stroke-width:0.8;" x="313.305635" xlink:href="#m1778f05a33" y="307.584"/>
      </g>
     </g>
     <g id="text_7">
      <!-- 150 -->
      <g transform="translate(303.761885 322.182437)scale(0.1 -0.1)">
       <use xlink:href="#DejaVuSans-49"/>
       <use x="63.623047" xlink:href="#DejaVuSans-53"/>
       <use x="127.246094" xlink:href="#DejaVuSans-48"/>
      </g>
     </g>
    </g>
    <g id="xtick_8">
     <g id="line2d_8">
      <g>
       <use style="stroke:#000000;stroke-width:0.8;" x="353.485653" xlink:href="#m1778f05a33" y="307.584"/>
      </g>
     </g>
     <g id="text_8">
      <!-- 175 -->
      <g transform="translate(343.941903 322.182437)scale(0.1 -0.1)">
       <use xlink:href="#DejaVuSans-49"/>
       <use x="63.623047" xlink:href="#DejaVuSans-55"/>
       <use x="127.246094" xlink:href="#DejaVuSans-53"/>
      </g>
     </g>
    </g>
    <g id="xtick_9">
     <g id="line2d_9">
      <g>
       <use style="stroke:#000000;stroke-width:0.8;" x="393.665671" xlink:href="#m1778f05a33" y="307.584"/>
      </g>
     </g>
     <g id="text_9">
      <!-- 200 -->
      <g transform="translate(384.121921 322.182437)scale(0.1 -0.1)">
       <use xlink:href="#DejaVuSans-50"/>
       <use x="63.623047" xlink:href="#DejaVuSans-48"/>
       <use x="127.246094" xlink:href="#DejaVuSans-48"/>
      </g>
     </g>
    </g>
    <g id="text_10">
     <!-- Place -->
     <g transform="translate(222.86625 335.860562)scale(0.1 -0.1)">
      <defs>
       <path d="M 19.671875 64.796875 
L 19.671875 37.40625 
L 32.078125 37.40625 
Q 38.96875 37.40625 42.71875 40.96875 
Q 46.484375 44.53125 46.484375 51.125 
Q 46.484375 57.671875 42.71875 61.234375 
Q 38.96875 64.796875 32.078125 64.796875 
z
M 9.8125 72.90625 
L 32.078125 72.90625 
Q 44.34375 72.90625 50.609375 67.359375 
Q 56.890625 61.8125 56.890625 51.125 
Q 56.890625 40.328125 50.609375 34.8125 
Q 44.34375 29.296875 32.078125 29.296875 
L 19.671875 29.296875 
L 19.671875 0 
L 9.8125 0 
z
" id="DejaVuSans-80"/>
       <path d="M 9.421875 75.984375 
L 18.40625 75.984375 
L 18.40625 0 
L 9.421875 0 
z
" id="DejaVuSans-108"/>
       <path d="M 34.28125 27.484375 
Q 23.390625 27.484375 19.1875 25 
Q 14.984375 22.515625 14.984375 16.5 
Q 14.984375 11.71875 18.140625 8.90625 
Q 21.296875 6.109375 26.703125 6.109375 
Q 34.1875 6.109375 38.703125 11.40625 
Q 43.21875 16.703125 43.21875 25.484375 
L 43.21875 27.484375 
z
M 52.203125 31.203125 
L 52.203125 0 
L 43.21875 0 
L 43.21875 8.296875 
Q 40.140625 3.328125 35.546875 0.953125 
Q 30.953125 -1.421875 24.3125 -1.421875 
Q 15.921875 -1.421875 10.953125 3.296875 
Q 6 8.015625 6 15.921875 
Q 6 25.140625 12.171875 29.828125 
Q 18.359375 34.515625 30.609375 34.515625 
L 43.21875 34.515625 
L 43.21875 35.40625 
Q 43.21875 41.609375 39.140625 45 
Q 35.0625 48.390625 27.6875 48.390625 
Q 23 48.390625 18.546875 47.265625 
Q 14.109375 46.140625 10.015625 43.890625 
L 10.015625 52.203125 
Q 14.9375 54.109375 19.578125 55.046875 
Q 24.21875 56 28.609375 56 
Q 40.484375 56 46.34375 49.84375 
Q 52.203125 43.703125 52.203125 31.203125 
z
" id="DejaVuSans-97"/>
       <path d="M 48.78125 52.59375 
L 48.78125 44.1875 
Q 44.96875 46.296875 41.140625 47.34375 
Q 37.3125 48.390625 33.40625 48.390625 
Q 24.65625 48.390625 19.8125 42.84375 
Q 14.984375 37.3125 14.984375 27.296875 
Q 14.984375 17.28125 19.8125 11.734375 
Q 24.65625 6.203125 33.40625 6.203125 
Q 37.3125 6.203125 41.140625 7.25 
Q 44.96875 8.296875 48.78125 10.40625 
L 48.78125 2.09375 
Q 45.015625 0.34375 40.984375 -0.53125 
Q 36.96875 -1.421875 32.421875 -1.421875 
Q 20.0625 -1.421875 12.78125 6.34375 
Q 5.515625 14.109375 5.515625 27.296875 
Q 5.515625 40.671875 12.859375 48.328125 
Q 20.21875 56 33.015625 56 
Q 37.15625 56 41.109375 55.140625 
Q 45.0625 54.296875 48.78125 52.59375 
z
" id="DejaVuSans-99"/>
       <path d="M 56.203125 29.59375 
L 56.203125 25.203125 
L 14.890625 25.203125 
Q 15.484375 15.921875 20.484375 11.0625 
Q 25.484375 6.203125 34.421875 6.203125 
Q 39.59375 6.203125 44.453125 7.46875 
Q 49.3125 8.734375 54.109375 11.28125 
L 54.109375 2.78125 
Q 49.265625 0.734375 44.1875 -0.34375 
Q 39.109375 -1.421875 33.890625 -1.421875 
Q 20.796875 -1.421875 13.15625 6.1875 
Q 5.515625 13.8125 5.515625 26.8125 
Q 5.515625 40.234375 12.765625 48.109375 
Q 20.015625 56 32.328125 56 
Q 43.359375 56 49.78125 48.890625 
Q 56.203125 41.796875 56.203125 29.59375 
z
M 47.21875 32.234375 
Q 47.125 39.59375 43.09375 43.984375 
Q 39.0625 48.390625 32.421875 48.390625 
Q 24.90625 48.390625 20.390625 44.140625 
Q 15.875 39.890625 15.1875 32.171875 
z
" id="DejaVuSans-101"/>
      </defs>
      <use xlink:href="#DejaVuSans-80"/>
      <use x="60.302734" xlink:href="#DejaVuSans-108"/>
      <use x="88.085938" xlink:href="#DejaVuSans-97"/>
      <use x="149.365234" xlink:href="#DejaVuSans-99"/>
      <use x="204.345703" xlink:href="#DejaVuSans-101"/>
     </g>
    </g>
   </g>
   <g id="matplotlib.axis_2">
    <g id="ytick_1">
     <g id="line2d_10">
      <defs>
       <path d="M 0 0 
L -3.5 0 
" id="m326564a8d0" style="stroke:#000000;stroke-width:0.8;"/>
      </defs>
      <g>
       <use style="stroke:#000000;stroke-width:0.8;" x="57.6" xlink:href="#m326564a8d0" y="256.238442"/>
      </g>
     </g>
     <g id="text_11">
      <!-- 1000 -->
      <g transform="translate(25.15 260.037661)scale(0.1 -0.1)">
       <use xlink:href="#DejaVuSans-49"/>
       <use x="63.623047" xlink:href="#DejaVuSans-48"/>
       <use x="127.246094" xlink:href="#DejaVuSans-48"/>
       <use x="190.869141" xlink:href="#DejaVuSans-48"/>
      </g>
     </g>
    </g>
    <g id="ytick_2">
     <g id="line2d_11">
      <g>
       <use style="stroke:#000000;stroke-width:0.8;" x="57.6" xlink:href="#m326564a8d0" y="201.343956"/>
      </g>
     </g>
     <g id="text_12">
      <!-- 2000 -->
      <g transform="translate(25.15 205.143175)scale(0.1 -0.1)">
       <use xlink:href="#DejaVuSans-50"/>
       <use x="63.623047" xlink:href="#DejaVuSans-48"/>
       <use x="127.246094" xlink:href="#DejaVuSans-48"/>
       <use x="190.869141" xlink:href="#DejaVuSans-48"/>
      </g>
     </g>
    </g>
    <g id="ytick_3">
     <g id="line2d_12">
      <g>
       <use style="stroke:#000000;stroke-width:0.8;" x="57.6" xlink:href="#m326564a8d0" y="146.44947"/>
      </g>
     </g>
     <g id="text_13">
      <!-- 3000 -->
      <g transform="translate(25.15 150.248689)scale(0.1 -0.1)">
       <defs>
        <path d="M 40.578125 39.3125 
Q 47.65625 37.796875 51.625 33 
Q 55.609375 28.21875 55.609375 21.1875 
Q 55.609375 10.40625 48.1875 4.484375 
Q 40.765625 -1.421875 27.09375 -1.421875 
Q 22.515625 -1.421875 17.65625 -0.515625 
Q 12.796875 0.390625 7.625 2.203125 
L 7.625 11.71875 
Q 11.71875 9.328125 16.59375 8.109375 
Q 21.484375 6.890625 26.8125 6.890625 
Q 36.078125 6.890625 40.9375 10.546875 
Q 45.796875 14.203125 45.796875 21.1875 
Q 45.796875 27.640625 41.28125 31.265625 
Q 36.765625 34.90625 28.71875 34.90625 
L 20.21875 34.90625 
L 20.21875 43.015625 
L 29.109375 43.015625 
Q 36.375 43.015625 40.234375 45.921875 
Q 44.09375 48.828125 44.09375 54.296875 
Q 44.09375 59.90625 40.109375 62.90625 
Q 36.140625 65.921875 28.71875 65.921875 
Q 24.65625 65.921875 20.015625 65.03125 
Q 15.375 64.15625 9.8125 62.3125 
L 9.8125 71.09375 
Q 15.4375 72.65625 20.34375 73.4375 
Q 25.25 74.21875 29.59375 74.21875 
Q 40.828125 74.21875 47.359375 69.109375 
Q 53.90625 64.015625 53.90625 55.328125 
Q 53.90625 49.265625 50.4375 45.09375 
Q 46.96875 40.921875 40.578125 39.3125 
z
" id="DejaVuSans-51"/>
       </defs>
       <use xlink:href="#DejaVuSans-51"/>
       <use x="63.623047" xlink:href="#DejaVuSans-48"/>
       <use x="127.246094" xlink:href="#DejaVuSans-48"/>
       <use x="190.869141" xlink:href="#DejaVuSans-48"/>
      </g>
     </g>
    </g>
    <g id="ytick_4">
     <g id="line2d_13">
      <g>
       <use style="stroke:#000000;stroke-width:0.8;" x="57.6" xlink:href="#m326564a8d0" y="91.554984"/>
      </g>
     </g>
     <g id="text_14">
      <!-- 4000 -->
      <g transform="translate(25.15 95.354203)scale(0.1 -0.1)">
       <defs>
        <path d="M 37.796875 64.3125 
L 12.890625 25.390625 
L 37.796875 25.390625 
z
M 35.203125 72.90625 
L 47.609375 72.90625 
L 47.609375 25.390625 
L 58.015625 25.390625 
L 58.015625 17.1875 
L 47.609375 17.1875 
L 47.609375 0 
L 37.796875 0 
L 37.796875 17.1875 
L 4.890625 17.1875 
L 4.890625 26.703125 
z
" id="DejaVuSans-52"/>
       </defs>
       <use xlink:href="#DejaVuSans-52"/>
       <use x="63.623047" xlink:href="#DejaVuSans-48"/>
       <use x="127.246094" xlink:href="#DejaVuSans-48"/>
       <use x="190.869141" xlink:href="#DejaVuSans-48"/>
      </g>
     </g>
    </g>
    <g id="text_15">
     <!-- Points -->
     <g transform="translate(19.070312 189.543625)rotate(-90)scale(0.1 -0.1)">
      <defs>
       <path d="M 30.609375 48.390625 
Q 23.390625 48.390625 19.1875 42.75 
Q 14.984375 37.109375 14.984375 27.296875 
Q 14.984375 17.484375 19.15625 11.84375 
Q 23.34375 6.203125 30.609375 6.203125 
Q 37.796875 6.203125 41.984375 11.859375 
Q 46.1875 17.53125 46.1875 27.296875 
Q 46.1875 37.015625 41.984375 42.703125 
Q 37.796875 48.390625 30.609375 48.390625 
z
M 30.609375 56 
Q 42.328125 56 49.015625 48.375 
Q 55.71875 40.765625 55.71875 27.296875 
Q 55.71875 13.875 49.015625 6.21875 
Q 42.328125 -1.421875 30.609375 -1.421875 
Q 18.84375 -1.421875 12.171875 6.21875 
Q 5.515625 13.875 5.515625 27.296875 
Q 5.515625 40.765625 12.171875 48.375 
Q 18.84375 56 30.609375 56 
z
" id="DejaVuSans-111"/>
       <path d="M 9.421875 54.6875 
L 18.40625 54.6875 
L 18.40625 0 
L 9.421875 0 
z
M 9.421875 75.984375 
L 18.40625 75.984375 
L 18.40625 64.59375 
L 9.421875 64.59375 
z
" id="DejaVuSans-105"/>
       <path d="M 54.890625 33.015625 
L 54.890625 0 
L 45.90625 0 
L 45.90625 32.71875 
Q 45.90625 40.484375 42.875 44.328125 
Q 39.84375 48.1875 33.796875 48.1875 
Q 26.515625 48.1875 22.3125 43.546875 
Q 18.109375 38.921875 18.109375 30.90625 
L 18.109375 0 
L 9.078125 0 
L 9.078125 54.6875 
L 18.109375 54.6875 
L 18.109375 46.1875 
Q 21.34375 51.125 25.703125 53.5625 
Q 30.078125 56 35.796875 56 
Q 45.21875 56 50.046875 50.171875 
Q 54.890625 44.34375 54.890625 33.015625 
z
" id="DejaVuSans-110"/>
       <path d="M 18.3125 70.21875 
L 18.3125 54.6875 
L 36.8125 54.6875 
L 36.8125 47.703125 
L 18.3125 47.703125 
L 18.3125 18.015625 
Q 18.3125 11.328125 20.140625 9.421875 
Q 21.96875 7.515625 27.59375 7.515625 
L 36.8125 7.515625 
L 36.8125 0 
L 27.59375 0 
Q 17.1875 0 13.234375 3.875 
Q 9.28125 7.765625 9.28125 18.015625 
L 9.28125 47.703125 
L 2.6875 47.703125 
L 2.6875 54.6875 
L 9.28125 54.6875 
L 9.28125 70.21875 
z
" id="DejaVuSans-116"/>
       <path d="M 44.28125 53.078125 
L 44.28125 44.578125 
Q 40.484375 46.53125 36.375 47.5 
Q 32.28125 48.484375 27.875 48.484375 
Q 21.1875 48.484375 17.84375 46.4375 
Q 14.5 44.390625 14.5 40.28125 
Q 14.5 37.15625 16.890625 35.375 
Q 19.28125 33.59375 26.515625 31.984375 
L 29.59375 31.296875 
Q 39.15625 29.25 43.1875 25.515625 
Q 47.21875 21.78125 47.21875 15.09375 
Q 47.21875 7.46875 41.1875 3.015625 
Q 35.15625 -1.421875 24.609375 -1.421875 
Q 20.21875 -1.421875 15.453125 -0.5625 
Q 10.6875 0.296875 5.421875 2 
L 5.421875 11.28125 
Q 10.40625 8.6875 15.234375 7.390625 
Q 20.0625 6.109375 24.8125 6.109375 
Q 31.15625 6.109375 34.5625 8.28125 
Q 37.984375 10.453125 37.984375 14.40625 
Q 37.984375 18.0625 35.515625 20.015625 
Q 33.0625 21.96875 24.703125 23.78125 
L 21.578125 24.515625 
Q 13.234375 26.265625 9.515625 29.90625 
Q 5.8125 33.546875 5.8125 39.890625 
Q 5.8125 47.609375 11.28125 51.796875 
Q 16.75 56 26.8125 56 
Q 31.78125 56 36.171875 55.265625 
Q 40.578125 54.546875 44.28125 53.078125 
z
" id="DejaVuSans-115"/>
      </defs>
      <use xlink:href="#DejaVuSans-80"/>
      <use x="56.677734" xlink:href="#DejaVuSans-111"/>
      <use x="117.859375" xlink:href="#DejaVuSans-105"/>
      <use x="145.642578" xlink:href="#DejaVuSans-110"/>
      <use x="209.021484" xlink:href="#DejaVuSans-116"/>
      <use x="248.230469" xlink:href="#DejaVuSans-115"/>
     </g>
    </g>
   </g>
   <g id="line2d_14">
    <path clip-path="url(#p49a17bae87)" d="M 73.832727 295.488 
L 75.439928 287.802772 
L 77.047129 283.74058 
L 78.654329 282.532901 
L 80.26153 275.561302 
L 81.868731 274.134045 
L 83.475932 268.80928 
L 85.083132 268.479913 
L 86.690333 265.405822 
L 88.297534 264.692193 
L 89.904734 262.880675 
L 91.511935 262.33173 
L 93.119136 261.398524 
L 94.726337 259.916373 
L 96.333537 256.45802 
L 97.940738 256.403126 
L 99.547939 255.799287 
L 101.15514 254.975869 
L 104.369541 254.262241 
L 105.976742 251.627306 
L 107.583942 251.078361 
L 109.191143 250.035366 
L 110.798344 247.345536 
L 114.012745 246.686802 
L 115.619946 245.753596 
L 118.834347 244.820389 
L 120.441548 243.887183 
L 122.048749 242.679504 
L 123.65595 241.03267 
L 125.26315 240.209253 
L 126.870351 239.770097 
L 128.477552 238.781996 
L 130.084752 238.34284 
L 131.691953 234.115965 
L 133.299154 233.56702 
L 134.906355 233.182758 
L 136.513555 229.943984 
L 138.120756 227.748204 
L 139.727957 227.08947 
L 146.15676 222.533228 
L 147.76396 222.533228 
L 150.978362 222.203861 
L 152.585563 221.435338 
L 154.192763 220.117871 
L 155.799964 219.843398 
L 157.407165 219.184664 
L 159.014365 218.086775 
L 160.621566 217.208463 
L 162.228767 216.93399 
L 163.835968 214.683317 
L 165.443168 214.189266 
L 167.050369 212.816904 
L 168.65757 211.993487 
L 170.26477 211.609225 
L 171.871971 211.554331 
L 173.479172 210.840703 
L 175.086373 210.785808 
L 176.693573 207.107877 
L 178.300774 206.8883 
L 179.907975 206.449144 
L 181.515176 206.229566 
L 183.122376 205.296359 
L 184.729577 202.881002 
L 186.336778 202.386952 
L 187.943978 202.332057 
L 189.551179 201.343956 
L 191.15838 200.740117 
L 192.765581 200.575434 
L 194.372781 197.556237 
L 195.979982 196.348558 
L 199.194383 195.909402 
L 200.801584 195.195774 
L 202.408785 194.866407 
L 204.015986 194.811513 
L 205.623186 193.988095 
L 208.837588 192.011894 
L 210.444788 191.84721 
L 212.051989 191.023793 
L 213.65919 190.694426 
L 215.266391 188.224174 
L 216.873591 186.57734 
L 218.480792 185.095189 
L 221.695194 183.558143 
L 223.302394 183.283671 
L 224.909595 182.240675 
L 228.123996 181.911308 
L 229.731197 180.813419 
L 231.338398 179.935107 
L 234.552799 179.715529 
L 236.16 178.782323 
L 237.767201 178.562745 
L 239.374401 178.178483 
L 240.981602 177.190383 
L 245.803204 176.806121 
L 247.410405 176.531649 
L 249.017606 174.445658 
L 252.232007 174.335869 
L 253.839208 172.908613 
L 255.446409 171.151989 
L 257.053609 170.603044 
L 258.66081 170.54815 
L 260.268011 170.273677 
L 261.875212 169.724732 
L 263.482412 169.560049 
L 265.089613 166.156591 
L 266.696814 166.101696 
L 268.304014 163.0825 
L 269.911215 162.259082 
L 271.518416 159.679042 
L 273.125617 158.581152 
L 274.732817 158.471363 
L 276.340018 158.032207 
L 277.947219 157.922418 
L 279.554419 157.593051 
L 281.16162 156.056005 
L 284.376022 154.958116 
L 285.983222 154.51896 
L 287.590423 154.51896 
L 289.197624 154.189593 
L 290.804824 153.475965 
L 294.019226 148.974617 
L 297.233627 148.864828 
L 298.840828 148.809933 
L 300.448029 148.590355 
L 302.05523 147.382677 
L 305.269631 146.394576 
L 306.876832 144.85753 
L 308.484032 144.637952 
L 310.091233 143.86943 
L 311.698434 143.430274 
L 313.305635 142.661751 
L 316.520036 140.795338 
L 318.127237 139.532765 
L 319.734437 139.258293 
L 321.341638 138.654453 
L 322.948839 138.270192 
L 324.55604 135.580362 
L 326.16324 133.439477 
L 327.770441 132.396482 
L 329.377642 132.067115 
L 330.984842 130.255597 
L 332.592043 129.43218 
L 334.199244 128.82834 
L 335.806445 127.950029 
L 337.413645 127.2364 
L 339.020846 126.028722 
L 343.842448 124.326993 
L 345.449649 122.241002 
L 347.05685 121.582268 
L 348.66405 119.221805 
L 350.271251 117.520076 
L 351.878452 117.135815 
L 353.485653 115.873242 
L 355.092853 111.756155 
L 356.700054 110.274004 
L 358.307255 109.395692 
L 359.914455 108.736958 
L 361.521656 106.92544 
L 363.128857 98.032534 
L 364.736058 97.209116 
L 366.343258 95.452493 
L 367.950459 95.452493 
L 371.16486 94.519287 
L 372.772061 93.750764 
L 374.379262 91.884351 
L 375.986463 91.060934 
L 377.593663 90.457095 
L 379.200864 89.633677 
L 380.808065 86.504692 
L 382.415266 85.406802 
L 384.022466 84.802963 
L 385.629667 82.93655 
L 387.236868 82.168027 
L 388.844068 79.313514 
L 390.451269 77.337312 
L 392.05847 76.129634 
L 393.665671 62.351118 
L 395.272871 53.568 
L 398.487273 53.568 
L 398.487273 53.568 
" style="fill:none;stroke:#2e66b6;stroke-linecap:square;stroke-width:1.5;"/>
    <defs>
     <path d="M 0 3 
C 0.795609 3 1.55874 2.683901 2.12132 2.12132 
C 2.683901 1.55874 3 0.795609 3 0 
C 3 -0.795609 2.683901 -1.55874 2.12132 -2.12132 
C 1.55874 -2.683901 0.795609 -3 0 -3 
C -0.795609 -3 -1.55874 -2.683901 -2.12132 -2.12132 
C -2.683901 -1.55874 -3 -0.795609 -3 0 
C -3 0.795609 -2.683901 1.55874 -2.12132 2.12132 
C -1.55874 2.683901 -0.795609 3 0 3 
z
" id="m7cf4d69258" style="stroke:#2e66b6;"/>
    </defs>
    <g clip-path="url(#p49a17bae87)">
     <use style="fill:#2e66b6;stroke:#2e66b6;" x="73.832727" xlink:href="#m7cf4d69258" y="295.488"/>
     <use style="fill:#2e66b6;stroke:#2e66b6;" x="75.439928" xlink:href="#m7cf4d69258" y="287.802772"/>
     <use style="fill:#2e66b6;stroke:#2e66b6;" x="77.047129" xlink:href="#m7cf4d69258" y="283.74058"/>
     <use style="fill:#2e66b6;stroke:#2e66b6;" x="78.654329" xlink:href="#m7cf4d69258" y="282.532901"/>
     <use style="fill:#2e66b6;stroke:#2e66b6;" x="80.26153" xlink:href="#m7cf4d69258" y="275.561302"/>
     <use style="fill:#2e66b6;stroke:#2e66b6;" x="81.868731" xlink:href="#m7cf4d69258" y="274.134045"/>
     <use style="fill:#2e66b6;stroke:#2e66b6;" x="83.475932" xlink:href="#m7cf4d69258" y="268.80928"/>
     <use style="fill:#2e66b6;stroke:#2e66b6;" x="85.083132" xlink:href="#m7cf4d69258" y="268.479913"/>
     <use style="fill:#2e66b6;stroke:#2e66b6;" x="86.690333" xlink:href="#m7cf4d69258" y="265.405822"/>
     <use style="fill:#2e66b6;stroke:#2e66b6;" x="88.297534" xlink:href="#m7cf4d69258" y="264.692193"/>
     <use style="fill:#2e66b6;stroke:#2e66b6;" x="89.904734" xlink:href="#m7cf4d69258" y="262.880675"/>
     <use style="fill:#2e66b6;stroke:#2e66b6;" x="91.511935" xlink:href="#m7cf4d69258" y="262.33173"/>
     <use style="fill:#2e66b6;stroke:#2e66b6;" x="93.119136" xlink:href="#m7cf4d69258" y="261.398524"/>
     <use style="fill:#2e66b6;stroke:#2e66b6;" x="94.726337" xlink:href="#m7cf4d69258" y="259.916373"/>
     <use style="fill:#2e66b6;stroke:#2e66b6;" x="96.333537" xlink:href="#m7cf4d69258" y="256.45802"/>
     <use style="fill:#2e66b6;stroke:#2e66b6;" x="97.940738" xlink:href="#m7cf4d69258" y="256.403126"/>
     <use style="fill:#2e66b6;stroke:#2e66b6;" x="99.547939" xlink:href="#m7cf4d69258" y="255.799287"/>
     <use style="fill:#2e66b6;stroke:#2e66b6;" x="101.15514" xlink:href="#m7cf4d69258" y="254.975869"/>
     <use style="fill:#2e66b6;stroke:#2e66b6;" x="102.76234" xlink:href="#m7cf4d69258" y="254.591608"/>
     <use style="fill:#2e66b6;stroke:#2e66b6;" x="104.369541" xlink:href="#m7cf4d69258" y="254.262241"/>
     <use style="fill:#2e66b6;stroke:#2e66b6;" x="105.976742" xlink:href="#m7cf4d69258" y="251.627306"/>
     <use style="fill:#2e66b6;stroke:#2e66b6;" x="107.583942" xlink:href="#m7cf4d69258" y="251.078361"/>
     <use style="fill:#2e66b6;stroke:#2e66b6;" x="109.191143" xlink:href="#m7cf4d69258" y="250.035366"/>
     <use style="fill:#2e66b6;stroke:#2e66b6;" x="110.798344" xlink:href="#m7cf4d69258" y="247.345536"/>
     <use style="fill:#2e66b6;stroke:#2e66b6;" x="112.405545" xlink:href="#m7cf4d69258" y="246.961274"/>
     <use style="fill:#2e66b6;stroke:#2e66b6;" x="114.012745" xlink:href="#m7cf4d69258" y="246.686802"/>
     <use style="fill:#2e66b6;stroke:#2e66b6;" x="115.619946" xlink:href="#m7cf4d69258" y="245.753596"/>
     <use style="fill:#2e66b6;stroke:#2e66b6;" x="117.227147" xlink:href="#m7cf4d69258" y="245.31444"/>
     <use style="fill:#2e66b6;stroke:#2e66b6;" x="118.834347" xlink:href="#m7cf4d69258" y="244.820389"/>
     <use style="fill:#2e66b6;stroke:#2e66b6;" x="120.441548" xlink:href="#m7cf4d69258" y="243.887183"/>
     <use style="fill:#2e66b6;stroke:#2e66b6;" x="122.048749" xlink:href="#m7cf4d69258" y="242.679504"/>
     <use style="fill:#2e66b6;stroke:#2e66b6;" x="123.65595" xlink:href="#m7cf4d69258" y="241.03267"/>
     <use style="fill:#2e66b6;stroke:#2e66b6;" x="125.26315" xlink:href="#m7cf4d69258" y="240.209253"/>
     <use style="fill:#2e66b6;stroke:#2e66b6;" x="126.870351" xlink:href="#m7cf4d69258" y="239.770097"/>
     <use style="fill:#2e66b6;stroke:#2e66b6;" x="128.477552" xlink:href="#m7cf4d69258" y="238.781996"/>
     <use style="fill:#2e66b6;stroke:#2e66b6;" x="130.084752" xlink:href="#m7cf4d69258" y="238.34284"/>
     <use style="fill:#2e66b6;stroke:#2e66b6;" x="131.691953" xlink:href="#m7cf4d69258" y="234.115965"/>
     <use style="fill:#2e66b6;stroke:#2e66b6;" x="133.299154" xlink:href="#m7cf4d69258" y="233.56702"/>
     <use style="fill:#2e66b6;stroke:#2e66b6;" x="134.906355" xlink:href="#m7cf4d69258" y="233.182758"/>
     <use style="fill:#2e66b6;stroke:#2e66b6;" x="136.513555" xlink:href="#m7cf4d69258" y="229.943984"/>
     <use style="fill:#2e66b6;stroke:#2e66b6;" x="138.120756" xlink:href="#m7cf4d69258" y="227.748204"/>
     <use style="fill:#2e66b6;stroke:#2e66b6;" x="139.727957" xlink:href="#m7cf4d69258" y="227.08947"/>
     <use style="fill:#2e66b6;stroke:#2e66b6;" x="141.335158" xlink:href="#m7cf4d69258" y="225.936686"/>
     <use style="fill:#2e66b6;stroke:#2e66b6;" x="142.942358" xlink:href="#m7cf4d69258" y="224.893691"/>
     <use style="fill:#2e66b6;stroke:#2e66b6;" x="144.549559" xlink:href="#m7cf4d69258" y="223.521329"/>
     <use style="fill:#2e66b6;stroke:#2e66b6;" x="146.15676" xlink:href="#m7cf4d69258" y="222.533228"/>
     <use style="fill:#2e66b6;stroke:#2e66b6;" x="147.76396" xlink:href="#m7cf4d69258" y="222.533228"/>
     <use style="fill:#2e66b6;stroke:#2e66b6;" x="149.371161" xlink:href="#m7cf4d69258" y="222.31365"/>
     <use style="fill:#2e66b6;stroke:#2e66b6;" x="150.978362" xlink:href="#m7cf4d69258" y="222.203861"/>
     <use style="fill:#2e66b6;stroke:#2e66b6;" x="152.585563" xlink:href="#m7cf4d69258" y="221.435338"/>
     <use style="fill:#2e66b6;stroke:#2e66b6;" x="154.192763" xlink:href="#m7cf4d69258" y="220.117871"/>
     <use style="fill:#2e66b6;stroke:#2e66b6;" x="155.799964" xlink:href="#m7cf4d69258" y="219.843398"/>
     <use style="fill:#2e66b6;stroke:#2e66b6;" x="157.407165" xlink:href="#m7cf4d69258" y="219.184664"/>
     <use style="fill:#2e66b6;stroke:#2e66b6;" x="159.014365" xlink:href="#m7cf4d69258" y="218.086775"/>
     <use style="fill:#2e66b6;stroke:#2e66b6;" x="160.621566" xlink:href="#m7cf4d69258" y="217.208463"/>
     <use style="fill:#2e66b6;stroke:#2e66b6;" x="162.228767" xlink:href="#m7cf4d69258" y="216.93399"/>
     <use style="fill:#2e66b6;stroke:#2e66b6;" x="163.835968" xlink:href="#m7cf4d69258" y="214.683317"/>
     <use style="fill:#2e66b6;stroke:#2e66b6;" x="165.443168" xlink:href="#m7cf4d69258" y="214.189266"/>
     <use style="fill:#2e66b6;stroke:#2e66b6;" x="167.050369" xlink:href="#m7cf4d69258" y="212.816904"/>
     <use style="fill:#2e66b6;stroke:#2e66b6;" x="168.65757" xlink:href="#m7cf4d69258" y="211.993487"/>
     <use style="fill:#2e66b6;stroke:#2e66b6;" x="170.26477" xlink:href="#m7cf4d69258" y="211.609225"/>
     <use style="fill:#2e66b6;stroke:#2e66b6;" x="171.871971" xlink:href="#m7cf4d69258" y="211.554331"/>
     <use style="fill:#2e66b6;stroke:#2e66b6;" x="173.479172" xlink:href="#m7cf4d69258" y="210.840703"/>
     <use style="fill:#2e66b6;stroke:#2e66b6;" x="175.086373" xlink:href="#m7cf4d69258" y="210.785808"/>
     <use style="fill:#2e66b6;stroke:#2e66b6;" x="176.693573" xlink:href="#m7cf4d69258" y="207.107877"/>
     <use style="fill:#2e66b6;stroke:#2e66b6;" x="178.300774" xlink:href="#m7cf4d69258" y="206.8883"/>
     <use style="fill:#2e66b6;stroke:#2e66b6;" x="179.907975" xlink:href="#m7cf4d69258" y="206.449144"/>
     <use style="fill:#2e66b6;stroke:#2e66b6;" x="181.515176" xlink:href="#m7cf4d69258" y="206.229566"/>
     <use style="fill:#2e66b6;stroke:#2e66b6;" x="183.122376" xlink:href="#m7cf4d69258" y="205.296359"/>
     <use style="fill:#2e66b6;stroke:#2e66b6;" x="184.729577" xlink:href="#m7cf4d69258" y="202.881002"/>
     <use style="fill:#2e66b6;stroke:#2e66b6;" x="186.336778" xlink:href="#m7cf4d69258" y="202.386952"/>
     <use style="fill:#2e66b6;stroke:#2e66b6;" x="187.943978" xlink:href="#m7cf4d69258" y="202.332057"/>
     <use style="fill:#2e66b6;stroke:#2e66b6;" x="189.551179" xlink:href="#m7cf4d69258" y="201.343956"/>
     <use style="fill:#2e66b6;stroke:#2e66b6;" x="191.15838" xlink:href="#m7cf4d69258" y="200.740117"/>
     <use style="fill:#2e66b6;stroke:#2e66b6;" x="192.765581" xlink:href="#m7cf4d69258" y="200.575434"/>
     <use style="fill:#2e66b6;stroke:#2e66b6;" x="194.372781" xlink:href="#m7cf4d69258" y="197.556237"/>
     <use style="fill:#2e66b6;stroke:#2e66b6;" x="195.979982" xlink:href="#m7cf4d69258" y="196.348558"/>
     <use style="fill:#2e66b6;stroke:#2e66b6;" x="197.587183" xlink:href="#m7cf4d69258" y="196.12898"/>
     <use style="fill:#2e66b6;stroke:#2e66b6;" x="199.194383" xlink:href="#m7cf4d69258" y="195.909402"/>
     <use style="fill:#2e66b6;stroke:#2e66b6;" x="200.801584" xlink:href="#m7cf4d69258" y="195.195774"/>
     <use style="fill:#2e66b6;stroke:#2e66b6;" x="202.408785" xlink:href="#m7cf4d69258" y="194.866407"/>
     <use style="fill:#2e66b6;stroke:#2e66b6;" x="204.015986" xlink:href="#m7cf4d69258" y="194.811513"/>
     <use style="fill:#2e66b6;stroke:#2e66b6;" x="205.623186" xlink:href="#m7cf4d69258" y="193.988095"/>
     <use style="fill:#2e66b6;stroke:#2e66b6;" x="207.230387" xlink:href="#m7cf4d69258" y="192.999995"/>
     <use style="fill:#2e66b6;stroke:#2e66b6;" x="208.837588" xlink:href="#m7cf4d69258" y="192.011894"/>
     <use style="fill:#2e66b6;stroke:#2e66b6;" x="210.444788" xlink:href="#m7cf4d69258" y="191.84721"/>
     <use style="fill:#2e66b6;stroke:#2e66b6;" x="212.051989" xlink:href="#m7cf4d69258" y="191.023793"/>
     <use style="fill:#2e66b6;stroke:#2e66b6;" x="213.65919" xlink:href="#m7cf4d69258" y="190.694426"/>
     <use style="fill:#2e66b6;stroke:#2e66b6;" x="215.266391" xlink:href="#m7cf4d69258" y="188.224174"/>
     <use style="fill:#2e66b6;stroke:#2e66b6;" x="216.873591" xlink:href="#m7cf4d69258" y="186.57734"/>
     <use style="fill:#2e66b6;stroke:#2e66b6;" x="218.480792" xlink:href="#m7cf4d69258" y="185.095189"/>
     <use style="fill:#2e66b6;stroke:#2e66b6;" x="220.087993" xlink:href="#m7cf4d69258" y="184.326666"/>
     <use style="fill:#2e66b6;stroke:#2e66b6;" x="221.695194" xlink:href="#m7cf4d69258" y="183.558143"/>
     <use style="fill:#2e66b6;stroke:#2e66b6;" x="223.302394" xlink:href="#m7cf4d69258" y="183.283671"/>
     <use style="fill:#2e66b6;stroke:#2e66b6;" x="224.909595" xlink:href="#m7cf4d69258" y="182.240675"/>
     <use style="fill:#2e66b6;stroke:#2e66b6;" x="226.516796" xlink:href="#m7cf4d69258" y="182.130886"/>
     <use style="fill:#2e66b6;stroke:#2e66b6;" x="228.123996" xlink:href="#m7cf4d69258" y="181.911308"/>
     <use style="fill:#2e66b6;stroke:#2e66b6;" x="229.731197" xlink:href="#m7cf4d69258" y="180.813419"/>
     <use style="fill:#2e66b6;stroke:#2e66b6;" x="231.338398" xlink:href="#m7cf4d69258" y="179.935107"/>
     <use style="fill:#2e66b6;stroke:#2e66b6;" x="232.945599" xlink:href="#m7cf4d69258" y="179.770423"/>
     <use style="fill:#2e66b6;stroke:#2e66b6;" x="234.552799" xlink:href="#m7cf4d69258" y="179.715529"/>
     <use style="fill:#2e66b6;stroke:#2e66b6;" x="236.16" xlink:href="#m7cf4d69258" y="178.782323"/>
     <use style="fill:#2e66b6;stroke:#2e66b6;" x="237.767201" xlink:href="#m7cf4d69258" y="178.562745"/>
     <use style="fill:#2e66b6;stroke:#2e66b6;" x="239.374401" xlink:href="#m7cf4d69258" y="178.178483"/>
     <use style="fill:#2e66b6;stroke:#2e66b6;" x="240.981602" xlink:href="#m7cf4d69258" y="177.190383"/>
     <use style="fill:#2e66b6;stroke:#2e66b6;" x="242.588803" xlink:href="#m7cf4d69258" y="177.080594"/>
     <use style="fill:#2e66b6;stroke:#2e66b6;" x="244.196004" xlink:href="#m7cf4d69258" y="176.970805"/>
     <use style="fill:#2e66b6;stroke:#2e66b6;" x="245.803204" xlink:href="#m7cf4d69258" y="176.806121"/>
     <use style="fill:#2e66b6;stroke:#2e66b6;" x="247.410405" xlink:href="#m7cf4d69258" y="176.531649"/>
     <use style="fill:#2e66b6;stroke:#2e66b6;" x="249.017606" xlink:href="#m7cf4d69258" y="174.445658"/>
     <use style="fill:#2e66b6;stroke:#2e66b6;" x="250.624806" xlink:href="#m7cf4d69258" y="174.445658"/>
     <use style="fill:#2e66b6;stroke:#2e66b6;" x="252.232007" xlink:href="#m7cf4d69258" y="174.335869"/>
     <use style="fill:#2e66b6;stroke:#2e66b6;" x="253.839208" xlink:href="#m7cf4d69258" y="172.908613"/>
     <use style="fill:#2e66b6;stroke:#2e66b6;" x="255.446409" xlink:href="#m7cf4d69258" y="171.151989"/>
     <use style="fill:#2e66b6;stroke:#2e66b6;" x="257.053609" xlink:href="#m7cf4d69258" y="170.603044"/>
     <use style="fill:#2e66b6;stroke:#2e66b6;" x="258.66081" xlink:href="#m7cf4d69258" y="170.54815"/>
     <use style="fill:#2e66b6;stroke:#2e66b6;" x="260.268011" xlink:href="#m7cf4d69258" y="170.273677"/>
     <use style="fill:#2e66b6;stroke:#2e66b6;" x="261.875212" xlink:href="#m7cf4d69258" y="169.724732"/>
     <use style="fill:#2e66b6;stroke:#2e66b6;" x="263.482412" xlink:href="#m7cf4d69258" y="169.560049"/>
     <use style="fill:#2e66b6;stroke:#2e66b6;" x="265.089613" xlink:href="#m7cf4d69258" y="166.156591"/>
     <use style="fill:#2e66b6;stroke:#2e66b6;" x="266.696814" xlink:href="#m7cf4d69258" y="166.101696"/>
     <use style="fill:#2e66b6;stroke:#2e66b6;" x="268.304014" xlink:href="#m7cf4d69258" y="163.0825"/>
     <use style="fill:#2e66b6;stroke:#2e66b6;" x="269.911215" xlink:href="#m7cf4d69258" y="162.259082"/>
     <use style="fill:#2e66b6;stroke:#2e66b6;" x="271.518416" xlink:href="#m7cf4d69258" y="159.679042"/>
     <use style="fill:#2e66b6;stroke:#2e66b6;" x="273.125617" xlink:href="#m7cf4d69258" y="158.581152"/>
     <use style="fill:#2e66b6;stroke:#2e66b6;" x="274.732817" xlink:href="#m7cf4d69258" y="158.471363"/>
     <use style="fill:#2e66b6;stroke:#2e66b6;" x="276.340018" xlink:href="#m7cf4d69258" y="158.032207"/>
     <use style="fill:#2e66b6;stroke:#2e66b6;" x="277.947219" xlink:href="#m7cf4d69258" y="157.922418"/>
     <use style="fill:#2e66b6;stroke:#2e66b6;" x="279.554419" xlink:href="#m7cf4d69258" y="157.593051"/>
     <use style="fill:#2e66b6;stroke:#2e66b6;" x="281.16162" xlink:href="#m7cf4d69258" y="156.056005"/>
     <use style="fill:#2e66b6;stroke:#2e66b6;" x="282.768821" xlink:href="#m7cf4d69258" y="155.452166"/>
     <use style="fill:#2e66b6;stroke:#2e66b6;" x="284.376022" xlink:href="#m7cf4d69258" y="154.958116"/>
     <use style="fill:#2e66b6;stroke:#2e66b6;" x="285.983222" xlink:href="#m7cf4d69258" y="154.51896"/>
     <use style="fill:#2e66b6;stroke:#2e66b6;" x="287.590423" xlink:href="#m7cf4d69258" y="154.51896"/>
     <use style="fill:#2e66b6;stroke:#2e66b6;" x="289.197624" xlink:href="#m7cf4d69258" y="154.189593"/>
     <use style="fill:#2e66b6;stroke:#2e66b6;" x="290.804824" xlink:href="#m7cf4d69258" y="153.475965"/>
     <use style="fill:#2e66b6;stroke:#2e66b6;" x="292.412025" xlink:href="#m7cf4d69258" y="151.280185"/>
     <use style="fill:#2e66b6;stroke:#2e66b6;" x="294.019226" xlink:href="#m7cf4d69258" y="148.974617"/>
     <use style="fill:#2e66b6;stroke:#2e66b6;" x="295.626427" xlink:href="#m7cf4d69258" y="148.974617"/>
     <use style="fill:#2e66b6;stroke:#2e66b6;" x="297.233627" xlink:href="#m7cf4d69258" y="148.864828"/>
     <use style="fill:#2e66b6;stroke:#2e66b6;" x="298.840828" xlink:href="#m7cf4d69258" y="148.809933"/>
     <use style="fill:#2e66b6;stroke:#2e66b6;" x="300.448029" xlink:href="#m7cf4d69258" y="148.590355"/>
     <use style="fill:#2e66b6;stroke:#2e66b6;" x="302.05523" xlink:href="#m7cf4d69258" y="147.382677"/>
     <use style="fill:#2e66b6;stroke:#2e66b6;" x="303.66243" xlink:href="#m7cf4d69258" y="146.833732"/>
     <use style="fill:#2e66b6;stroke:#2e66b6;" x="305.269631" xlink:href="#m7cf4d69258" y="146.394576"/>
     <use style="fill:#2e66b6;stroke:#2e66b6;" x="306.876832" xlink:href="#m7cf4d69258" y="144.85753"/>
     <use style="fill:#2e66b6;stroke:#2e66b6;" x="308.484032" xlink:href="#m7cf4d69258" y="144.637952"/>
     <use style="fill:#2e66b6;stroke:#2e66b6;" x="310.091233" xlink:href="#m7cf4d69258" y="143.86943"/>
     <use style="fill:#2e66b6;stroke:#2e66b6;" x="311.698434" xlink:href="#m7cf4d69258" y="143.430274"/>
     <use style="fill:#2e66b6;stroke:#2e66b6;" x="313.305635" xlink:href="#m7cf4d69258" y="142.661751"/>
     <use style="fill:#2e66b6;stroke:#2e66b6;" x="314.912835" xlink:href="#m7cf4d69258" y="141.67365"/>
     <use style="fill:#2e66b6;stroke:#2e66b6;" x="316.520036" xlink:href="#m7cf4d69258" y="140.795338"/>
     <use style="fill:#2e66b6;stroke:#2e66b6;" x="318.127237" xlink:href="#m7cf4d69258" y="139.532765"/>
     <use style="fill:#2e66b6;stroke:#2e66b6;" x="319.734437" xlink:href="#m7cf4d69258" y="139.258293"/>
     <use style="fill:#2e66b6;stroke:#2e66b6;" x="321.341638" xlink:href="#m7cf4d69258" y="138.654453"/>
     <use style="fill:#2e66b6;stroke:#2e66b6;" x="322.948839" xlink:href="#m7cf4d69258" y="138.270192"/>
     <use style="fill:#2e66b6;stroke:#2e66b6;" x="324.55604" xlink:href="#m7cf4d69258" y="135.580362"/>
     <use style="fill:#2e66b6;stroke:#2e66b6;" x="326.16324" xlink:href="#m7cf4d69258" y="133.439477"/>
     <use style="fill:#2e66b6;stroke:#2e66b6;" x="327.770441" xlink:href="#m7cf4d69258" y="132.396482"/>
     <use style="fill:#2e66b6;stroke:#2e66b6;" x="329.377642" xlink:href="#m7cf4d69258" y="132.067115"/>
     <use style="fill:#2e66b6;stroke:#2e66b6;" x="330.984842" xlink:href="#m7cf4d69258" y="130.255597"/>
     <use style="fill:#2e66b6;stroke:#2e66b6;" x="332.592043" xlink:href="#m7cf4d69258" y="129.43218"/>
     <use style="fill:#2e66b6;stroke:#2e66b6;" x="334.199244" xlink:href="#m7cf4d69258" y="128.82834"/>
     <use style="fill:#2e66b6;stroke:#2e66b6;" x="335.806445" xlink:href="#m7cf4d69258" y="127.950029"/>
     <use style="fill:#2e66b6;stroke:#2e66b6;" x="337.413645" xlink:href="#m7cf4d69258" y="127.2364"/>
     <use style="fill:#2e66b6;stroke:#2e66b6;" x="339.020846" xlink:href="#m7cf4d69258" y="126.028722"/>
     <use style="fill:#2e66b6;stroke:#2e66b6;" x="340.628047" xlink:href="#m7cf4d69258" y="125.424882"/>
     <use style="fill:#2e66b6;stroke:#2e66b6;" x="342.235248" xlink:href="#m7cf4d69258" y="124.766148"/>
     <use style="fill:#2e66b6;stroke:#2e66b6;" x="343.842448" xlink:href="#m7cf4d69258" y="124.326993"/>
     <use style="fill:#2e66b6;stroke:#2e66b6;" x="345.449649" xlink:href="#m7cf4d69258" y="122.241002"/>
     <use style="fill:#2e66b6;stroke:#2e66b6;" x="347.05685" xlink:href="#m7cf4d69258" y="121.582268"/>
     <use style="fill:#2e66b6;stroke:#2e66b6;" x="348.66405" xlink:href="#m7cf4d69258" y="119.221805"/>
     <use style="fill:#2e66b6;stroke:#2e66b6;" x="350.271251" xlink:href="#m7cf4d69258" y="117.520076"/>
     <use style="fill:#2e66b6;stroke:#2e66b6;" x="351.878452" xlink:href="#m7cf4d69258" y="117.135815"/>
     <use style="fill:#2e66b6;stroke:#2e66b6;" x="353.485653" xlink:href="#m7cf4d69258" y="115.873242"/>
     <use style="fill:#2e66b6;stroke:#2e66b6;" x="355.092853" xlink:href="#m7cf4d69258" y="111.756155"/>
     <use style="fill:#2e66b6;stroke:#2e66b6;" x="356.700054" xlink:href="#m7cf4d69258" y="110.274004"/>
     <use style="fill:#2e66b6;stroke:#2e66b6;" x="358.307255" xlink:href="#m7cf4d69258" y="109.395692"/>
     <use style="fill:#2e66b6;stroke:#2e66b6;" x="359.914455" xlink:href="#m7cf4d69258" y="108.736958"/>
     <use style="fill:#2e66b6;stroke:#2e66b6;" x="361.521656" xlink:href="#m7cf4d69258" y="106.92544"/>
     <use style="fill:#2e66b6;stroke:#2e66b6;" x="363.128857" xlink:href="#m7cf4d69258" y="98.032534"/>
     <use style="fill:#2e66b6;stroke:#2e66b6;" x="364.736058" xlink:href="#m7cf4d69258" y="97.209116"/>
     <use style="fill:#2e66b6;stroke:#2e66b6;" x="366.343258" xlink:href="#m7cf4d69258" y="95.452493"/>
     <use style="fill:#2e66b6;stroke:#2e66b6;" x="367.950459" xlink:href="#m7cf4d69258" y="95.452493"/>
     <use style="fill:#2e66b6;stroke:#2e66b6;" x="369.55766" xlink:href="#m7cf4d69258" y="95.013337"/>
     <use style="fill:#2e66b6;stroke:#2e66b6;" x="371.16486" xlink:href="#m7cf4d69258" y="94.519287"/>
     <use style="fill:#2e66b6;stroke:#2e66b6;" x="372.772061" xlink:href="#m7cf4d69258" y="93.750764"/>
     <use style="fill:#2e66b6;stroke:#2e66b6;" x="374.379262" xlink:href="#m7cf4d69258" y="91.884351"/>
     <use style="fill:#2e66b6;stroke:#2e66b6;" x="375.986463" xlink:href="#m7cf4d69258" y="91.060934"/>
     <use style="fill:#2e66b6;stroke:#2e66b6;" x="377.593663" xlink:href="#m7cf4d69258" y="90.457095"/>
     <use style="fill:#2e66b6;stroke:#2e66b6;" x="379.200864" xlink:href="#m7cf4d69258" y="89.633677"/>
     <use style="fill:#2e66b6;stroke:#2e66b6;" x="380.808065" xlink:href="#m7cf4d69258" y="86.504692"/>
     <use style="fill:#2e66b6;stroke:#2e66b6;" x="382.415266" xlink:href="#m7cf4d69258" y="85.406802"/>
     <use style="fill:#2e66b6;stroke:#2e66b6;" x="384.022466" xlink:href="#m7cf4d69258" y="84.802963"/>
     <use style="fill:#2e66b6;stroke:#2e66b6;" x="385.629667" xlink:href="#m7cf4d69258" y="82.93655"/>
     <use style="fill:#2e66b6;stroke:#2e66b6;" x="387.236868" xlink:href="#m7cf4d69258" y="82.168027"/>
     <use style="fill:#2e66b6;stroke:#2e66b6;" x="388.844068" xlink:href="#m7cf4d69258" y="79.313514"/>
     <use style="fill:#2e66b6;stroke:#2e66b6;" x="390.451269" xlink:href="#m7cf4d69258" y="77.337312"/>
     <use style="fill:#2e66b6;stroke:#2e66b6;" x="392.05847" xlink:href="#m7cf4d69258" y="76.129634"/>
     <use style="fill:#2e66b6;stroke:#2e66b6;" x="393.665671" xlink:href="#m7cf4d69258" y="62.351118"/>
     <use style="fill:#2e66b6;stroke:#2e66b6;" x="395.272871" xlink:href="#m7cf4d69258" y="53.568"/>
     <use style="fill:#2e66b6;stroke:#2e66b6;" x="396.880072" xlink:href="#m7cf4d69258" y="53.568"/>
     <use style="fill:#2e66b6;stroke:#2e66b6;" x="398.487273" xlink:href="#m7cf4d69258" y="53.568"/>
    </g>
   </g>
   <g id="line2d_15">
    <path clip-path="url(#p49a17bae87)" d="M 73.832727 272.154726 
L 398.487273 84.056757 
L 398.487273 84.056757 
" style="fill:none;stroke:#cccccc;stroke-dasharray:5.55,2.4;stroke-dashoffset:0;stroke-width:1.5;"/>
   </g>
   <g id="patch_3">
    <path d="M 57.6 307.584 
L 57.6 41.472 
" style="fill:none;stroke:#000000;stroke-linecap:square;stroke-linejoin:miter;stroke-width:0.8;"/>
   </g>
   <g id="patch_4">
    <path d="M 414.72 307.584 
L 414.72 41.472 
" style="fill:none;stroke:#000000;stroke-linecap:square;stroke-linejoin:miter;stroke-width:0.8;"/>
   </g>
   <g id="patch_5">
    <path d="M 57.6 307.584 
L 414.72 307.584 
" style="fill:none;stroke:#000000;stroke-linecap:square;stroke-linejoin:miter;stroke-width:0.8;"/>
   </g>
   <g id="patch_6">
    <path d="M 57.6 41.472 
L 414.72 41.472 
" style="fill:none;stroke:#000000;stroke-linecap:square;stroke-linejoin:miter;stroke-width:0.8;"/>
   </g>
   <g id="text_16">
    <!-- 2021 BEARSO Final Points - Division C -->
    <g transform="translate(122.761875 35.472)scale(0.12 -0.12)">
     <defs>
      <path id="DejaVuSans-32"/>
      <path d="M 19.671875 34.8125 
L 19.671875 8.109375 
L 35.5 8.109375 
Q 43.453125 8.109375 47.28125 11.40625 
Q 51.125 14.703125 51.125 21.484375 
Q 51.125 28.328125 47.28125 31.5625 
Q 43.453125 34.8125 35.5 34.8125 
z
M 19.671875 64.796875 
L 19.671875 42.828125 
L 34.28125 42.828125 
Q 41.5 42.828125 45.03125 45.53125 
Q 48.578125 48.25 48.578125 53.8125 
Q 48.578125 59.328125 45.03125 62.0625 
Q 41.5 64.796875 34.28125 64.796875 
z
M 9.8125 72.90625 
L 35.015625 72.90625 
Q 46.296875 72.90625 52.390625 68.21875 
Q 58.5 63.53125 58.5 54.890625 
Q 58.5 48.1875 55.375 44.234375 
Q 52.25 40.28125 46.1875 39.3125 
Q 53.46875 37.75 57.5 32.78125 
Q 61.53125 27.828125 61.53125 20.40625 
Q 61.53125 10.640625 54.890625 5.3125 
Q 48.25 0 35.984375 0 
L 9.8125 0 
z
" id="DejaVuSans-66"/>
      <path d="M 9.8125 72.90625 
L 55.90625 72.90625 
L 55.90625 64.59375 
L 19.671875 64.59375 
L 19.671875 43.015625 
L 54.390625 43.015625 
L 54.390625 34.71875 
L 19.671875 34.71875 
L 19.671875 8.296875 
L 56.78125 8.296875 
L 56.78125 0 
L 9.8125 0 
z
" id="DejaVuSans-69"/>
      <path d="M 34.1875 63.1875 
L 20.796875 26.90625 
L 47.609375 26.90625 
z
M 28.609375 72.90625 
L 39.796875 72.90625 
L 67.578125 0 
L 57.328125 0 
L 50.6875 18.703125 
L 17.828125 18.703125 
L 11.1875 0 
L 0.78125 0 
z
" id="DejaVuSans-65"/>
      <path d="M 44.390625 34.1875 
Q 47.5625 33.109375 50.5625 29.59375 
Q 53.5625 26.078125 56.59375 19.921875 
L 66.609375 0 
L 56 0 
L 46.6875 18.703125 
Q 43.0625 26.03125 39.671875 28.421875 
Q 36.28125 30.8125 30.421875 30.8125 
L 19.671875 30.8125 
L 19.671875 0 
L 9.8125 0 
L 9.8125 72.90625 
L 32.078125 72.90625 
Q 44.578125 72.90625 50.734375 67.671875 
Q 56.890625 62.453125 56.890625 51.90625 
Q 56.890625 45.015625 53.6875 40.46875 
Q 50.484375 35.9375 44.390625 34.1875 
z
M 19.671875 64.796875 
L 19.671875 38.921875 
L 32.078125 38.921875 
Q 39.203125 38.921875 42.84375 42.21875 
Q 46.484375 45.515625 46.484375 51.90625 
Q 46.484375 58.296875 42.84375 61.546875 
Q 39.203125 64.796875 32.078125 64.796875 
z
" id="DejaVuSans-82"/>
      <path d="M 53.515625 70.515625 
L 53.515625 60.890625 
Q 47.90625 63.578125 42.921875 64.890625 
Q 37.9375 66.21875 33.296875 66.21875 
Q 25.25 66.21875 20.875 63.09375 
Q 16.5 59.96875 16.5 54.203125 
Q 16.5 49.359375 19.40625 46.890625 
Q 22.3125 44.4375 30.421875 42.921875 
L 36.375 41.703125 
Q 47.40625 39.59375 52.65625 34.296875 
Q 57.90625 29 57.90625 20.125 
Q 57.90625 9.515625 50.796875 4.046875 
Q 43.703125 -1.421875 29.984375 -1.421875 
Q 24.8125 -1.421875 18.96875 -0.25 
Q 13.140625 0.921875 6.890625 3.21875 
L 6.890625 13.375 
Q 12.890625 10.015625 18.65625 8.296875 
Q 24.421875 6.59375 29.984375 6.59375 
Q 38.421875 6.59375 43.015625 9.90625 
Q 47.609375 13.234375 47.609375 19.390625 
Q 47.609375 24.75 44.3125 27.78125 
Q 41.015625 30.8125 33.5 32.328125 
L 27.484375 33.5 
Q 16.453125 35.6875 11.515625 40.375 
Q 6.59375 45.0625 6.59375 53.421875 
Q 6.59375 63.09375 13.40625 68.65625 
Q 20.21875 74.21875 32.171875 74.21875 
Q 37.3125 74.21875 42.625 73.28125 
Q 47.953125 72.359375 53.515625 70.515625 
z
" id="DejaVuSans-83"/>
      <path d="M 39.40625 66.21875 
Q 28.65625 66.21875 22.328125 58.203125 
Q 16.015625 50.203125 16.015625 36.375 
Q 16.015625 22.609375 22.328125 14.59375 
Q 28.65625 6.59375 39.40625 6.59375 
Q 50.140625 6.59375 56.421875 14.59375 
Q 62.703125 22.609375 62.703125 36.375 
Q 62.703125 50.203125 56.421875 58.203125 
Q 50.140625 66.21875 39.40625 66.21875 
z
M 39.40625 74.21875 
Q 54.734375 74.21875 63.90625 63.9375 
Q 73.09375 53.65625 73.09375 36.375 
Q 73.09375 19.140625 63.90625 8.859375 
Q 54.734375 -1.421875 39.40625 -1.421875 
Q 24.03125 -1.421875 14.8125 8.828125 
Q 5.609375 19.09375 5.609375 36.375 
Q 5.609375 53.65625 14.8125 63.9375 
Q 24.03125 74.21875 39.40625 74.21875 
z
" id="DejaVuSans-79"/>
      <path d="M 9.8125 72.90625 
L 51.703125 72.90625 
L 51.703125 64.59375 
L 19.671875 64.59375 
L 19.671875 43.109375 
L 48.578125 43.109375 
L 48.578125 34.8125 
L 19.671875 34.8125 
L 19.671875 0 
L 9.8125 0 
z
" id="DejaVuSans-70"/>
      <path d="M 4.890625 31.390625 
L 31.203125 31.390625 
L 31.203125 23.390625 
L 4.890625 23.390625 
z
" id="DejaVuSans-45"/>
      <path d="M 19.671875 64.796875 
L 19.671875 8.109375 
L 31.59375 8.109375 
Q 46.6875 8.109375 53.6875 14.9375 
Q 60.6875 21.78125 60.6875 36.53125 
Q 60.6875 51.171875 53.6875 57.984375 
Q 46.6875 64.796875 31.59375 64.796875 
z
M 9.8125 72.90625 
L 30.078125 72.90625 
Q 51.265625 72.90625 61.171875 64.09375 
Q 71.09375 55.28125 71.09375 36.53125 
Q 71.09375 17.671875 61.125 8.828125 
Q 51.171875 0 30.078125 0 
L 9.8125 0 
z
" id="DejaVuSans-68"/>
      <path d="M 2.984375 54.6875 
L 12.5 54.6875 
L 29.59375 8.796875 
L 46.6875 54.6875 
L 56.203125 54.6875 
L 35.6875 0 
L 23.484375 0 
z
" id="DejaVuSans-118"/>
      <path d="M 64.40625 67.28125 
L 64.40625 56.890625 
Q 59.421875 61.53125 53.78125 63.8125 
Q 48.140625 66.109375 41.796875 66.109375 
Q 29.296875 66.109375 22.65625 58.46875 
Q 16.015625 50.828125 16.015625 36.375 
Q 16.015625 21.96875 22.65625 14.328125 
Q 29.296875 6.6875 41.796875 6.6875 
Q 48.140625 6.6875 53.78125 8.984375 
Q 59.421875 11.28125 64.40625 15.921875 
L 64.40625 5.609375 
Q 59.234375 2.09375 53.4375 0.328125 
Q 47.65625 -1.421875 41.21875 -1.421875 
Q 24.65625 -1.421875 15.125 8.703125 
Q 5.609375 18.84375 5.609375 36.375 
Q 5.609375 53.953125 15.125 64.078125 
Q 24.65625 74.21875 41.21875 74.21875 
Q 47.75 74.21875 53.53125 72.484375 
Q 59.328125 70.75 64.40625 67.28125 
z
" id="DejaVuSans-67"/>
     </defs>
     <use xlink:href="#DejaVuSans-50"/>
     <use x="63.623047" xlink:href="#DejaVuSans-48"/>
     <use x="127.246094" xlink:href="#DejaVuSans-50"/>
     <use x="190.869141" xlink:href="#DejaVuSans-49"/>
     <use x="254.492188" xlink:href="#DejaVuSans-32"/>
     <use x="286.279297" xlink:href="#DejaVuSans-66"/>
     <use x="354.882812" xlink:href="#DejaVuSans-69"/>
     <use x="418.066406" xlink:href="#DejaVuSans-65"/>
     <use x="486.474609" xlink:href="#DejaVuSans-82"/>
     <use x="555.957031" xlink:href="#DejaVuSans-83"/>
     <use x="619.433594" xlink:href="#DejaVuSans-79"/>
     <use x="698.144531" xlink:href="#DejaVuSans-32"/>
     <use x="729.931641" xlink:href="#DejaVuSans-70"/>
     <use x="780.201172" xlink:href="#DejaVuSans-105"/>
     <use x="807.984375" xlink:href="#DejaVuSans-110"/>
     <use x="871.363281" xlink:href="#DejaVuSans-97"/>
     <use x="932.642578" xlink:href="#DejaVuSans-108"/>
     <use x="960.425781" xlink:href="#DejaVuSans-32"/>
     <use x="992.212891" xlink:href="#DejaVuSans-80"/>
     <use x="1048.890625" xlink:href="#DejaVuSans-111"/>
     <use x="1110.072266" xlink:href="#DejaVuSans-105"/>
     <use x="1137.855469" xlink:href="#DejaVuSans-110"/>
     <use x="1201.234375" xlink:href="#DejaVuSans-116"/>
     <use x="1240.443359" xlink:href="#DejaVuSans-115"/>
     <use x="1292.542969" xlink:href="#DejaVuSans-32"/>
     <use x="1324.330078" xlink:href="#DejaVuSans-45"/>
     <use x="1360.414062" xlink:href="#DejaVuSans-32"/>
     <use x="1392.201172" xlink:href="#DejaVuSans-68"/>
     <use x="1469.203125" xlink:href="#DejaVuSans-105"/>
     <use x="1496.986328" xlink:href="#DejaVuSans-118"/>
     <use x="1556.166016" xlink:href="#DejaVuSans-105"/>
     <use x="1583.949219" xlink:href="#DejaVuSans-115"/>
     <use x="1636.048828" xlink:href="#DejaVuSans-105"/>
     <use x="1663.832031" xlink:href="#DejaVuSans-111"/>
     <use x="1725.013672" xlink:href="#DejaVuSans-110"/>
     <use x="1788.392578" xlink:href="#DejaVuSans-32"/>
     <use x="1820.179688" xlink:href="#DejaVuSans-67"/>
    </g>
   </g>
  </g>
 </g>
 <defs>
  <clipPath id="p49a17bae87">
   <rect height="266.112" width="357.12" x="57.6" y="41.472"/>
  </clipPath>
 </defs>
</svg>
